<?xml version="1.0" encoding="UTF-8"?>
<!DOCTYPE svg PUBLIC "-//W3C//DTD SVG 1.1//EN" "http://www.w3.org/Graphics/SVG/1.1/DTD/svg11.dtd">
<svg xmlns="http://www.w3.org/2000/svg" version="1.1" width="64px" height="64px" style="shape-rendering:geometricPrecision; text-rendering:geometricPrecision; image-rendering:optimizeQuality; fill-rule:evenodd; clip-rule:evenodd" xmlns:xlink="http://www.w3.org/1999/xlink">
<g><path style="opacity:1" fill="#ffdf6d" d="M -0.5,-0.5 C 20.8333,-0.5 42.1667,-0.5 63.5,-0.5C 63.5,20.8333 63.5,42.1667 63.5,63.5C 42.1667,63.5 20.8333,63.5 -0.5,63.5C -0.5,42.1667 -0.5,20.8333 -0.5,-0.5 Z"/></g>
<g><path style="opacity:1" fill="#fefdfb" d="M 19.5,12.5 C 24.0558,13.9445 27.7224,16.6112 30.5,20.5C 32.1155,22.738 33.4488,25.0713 34.5,27.5C 34.7214,30.2788 34.388,32.9455 33.5,35.5C 33.0293,37.5786 32.3627,39.5786 31.5,41.5C 30.8333,41.5 30.5,41.8333 30.5,42.5C 27.7224,46.3888 24.0558,49.0555 19.5,50.5C 17.8333,50.5 16.1667,50.5 14.5,50.5C 14.5,47.8333 14.5,45.1667 14.5,42.5C 21.643,42.3601 25.643,38.6935 26.5,31.5C 25.643,24.3065 21.643,20.6399 14.5,20.5C 14.5,17.8333 14.5,15.1667 14.5,12.5C 16.1667,12.5 17.8333,12.5 19.5,12.5 Z"/></g>
<g><path style="opacity:1" fill="#fbf4db" d="M 19.5,12.5 C 26.8409,12.3337 34.1742,12.5003 41.5,13C 49.1564,17.7424 50.4897,23.9091 45.5,31.5C 49.703,37.803 49.0363,43.6363 43.5,49C 35.5852,50.4011 27.5852,50.9011 19.5,50.5C 24.0558,49.0555 27.7224,46.3888 30.5,42.5C 33.1667,43.8333 35.8333,43.8333 38.5,42.5C 40.3769,41.3409 40.8769,39.6742 40,37.5C 38.2111,35.771 36.0444,35.1043 33.5,35.5C 34.388,32.9455 34.7214,30.2788 34.5,27.5C 39.0001,27.8362 40.8334,25.8362 40,21.5C 36.9623,19.3065 33.7956,18.9732 30.5,20.5C 27.7224,16.6112 24.0558,13.9445 19.5,12.5 Z"/></g>
<g><path style="opacity:1" fill="#ffe073" d="M 34.5,27.5 C 33.4488,25.0713 32.1155,22.738 30.5,20.5C 33.7956,18.9732 36.9623,19.3065 40,21.5C 40.8334,25.8362 39.0001,27.8362 34.5,27.5 Z"/></g>
<g><path style="opacity:1" fill="#ffdf6f" d="M 33.5,35.5 C 36.0444,35.1043 38.2111,35.771 40,37.5C 40.8769,39.6742 40.3769,41.3409 38.5,42.5C 35.9407,42.8016 33.6074,42.4682 31.5,41.5C 32.3627,39.5786 33.0293,37.5786 33.5,35.5 Z"/></g>
<g><path style="opacity:1" fill="#fde9a2" d="M 31.5,41.5 C 33.6074,42.4682 35.9407,42.8016 38.5,42.5C 35.8333,43.8333 33.1667,43.8333 30.5,42.5C 30.5,41.8333 30.8333,41.5 31.5,41.5 Z"/></g>
</svg>
